inDegrees=no
num_controls=7
num_derivatives=13
num_iterations=132
num_multipliers=7
num_parameters=0
num_slacks=7
num_states=26
objective=5.388381
objective_accelerations=0.356517
objective_balance=0.047002
objective_effort=0.360157
objective_height=4.575990
objective_ligament=0.048715
solver_duration=1318.012630
status=Solve_Succeeded
success=true
DataType=double
version=3
OpenSimVersion=4.4-2022-07-23-0e9fedc
endheader
time	/jointset/ground_pelvis/pelvis_tilt/value	/jointset/ground_pelvis/pelvis_tx/value	/jointset/ground_pelvis/pelvis_ty/value	/jointset/hip_l/hip_flexion_l/value	/jointset/hip_l/hip_adduction_l/value	/jointset/hip_l/hip_rotation_l/value	/jointset/back/lumbar_extension/value	/jointset/patellofemoral_l/patellar_flexion_l/value	/jointset/knee_l/knee_flexion_l/value	/jointset/knee_l/knee_adduction_l/value	/jointset/knee_l/knee_rotation_l/value	/jointset/ankle_l/ankle_angle_l/value	/jointset/subtalar_l/subtalar_angle_l/value	/jointset/ground_pelvis/pelvis_tilt/speed	/jointset/ground_pelvis/pelvis_tx/speed	/jointset/ground_pelvis/pelvis_ty/speed	/jointset/hip_l/hip_flexion_l/speed	/jointset/hip_l/hip_adduction_l/speed	/jointset/hip_l/hip_rotation_l/speed	/jointset/back/lumbar_extension/speed	/jointset/patellofemoral_l/patellar_flexion_l/speed	/jointset/knee_l/knee_flexion_l/speed	/jointset/knee_l/knee_adduction_l/speed	/jointset/knee_l/knee_rotation_l/speed	/jointset/ankle_l/ankle_angle_l/speed	/jointset/subtalar_l/subtalar_angle_l/speed	/forceset/tau_hip_flexion_l	/forceset/tau_hip_adduction_l	/forceset/tau_hip_rotation_l	/forceset/tau_knee_flexion_l	/forceset/tau_ankle_angle_l	/forceset/tau_subtalar_angle_l	/forceset/tau_lumbar_extension	lambda_cid13_p0	lambda_cid13_p1	lambda_cid13_p2	lambda_cid13_p3	lambda_cid13_p4	lambda_cid13_p5	lambda_cid14_p0	/jointset/ground_pelvis/pelvis_tilt/accel	/jointset/ground_pelvis/pelvis_tx/accel	/jointset/ground_pelvis/pelvis_ty/accel	/jointset/hip_l/hip_flexion_l/accel	/jointset/hip_l/hip_adduction_l/accel	/jointset/hip_l/hip_rotation_l/accel	/jointset/back/lumbar_extension/accel	/jointset/patellofemoral_l/patellar_flexion_l/accel	/jointset/knee_l/knee_flexion_l/accel	/jointset/knee_l/knee_adduction_l/accel	/jointset/knee_l/knee_rotation_l/accel	/jointset/ankle_l/ankle_angle_l/accel	/jointset/subtalar_l/subtalar_angle_l/accel	gamma_cid13_p0	gamma_cid13_p1	gamma_cid13_p2	gamma_cid13_p3	gamma_cid13_p4	gamma_cid13_p5	gamma_cid14_p0
1.5	0.1107220513641081	0.04181033611824523	0.8883823254453912	0.409698044748337	-0.32303700322326	-0.1678642756130169	-0.7649947071829337	0.6658537537323213	0.6658537537323338	-0.1223964672652686	-0.1745188195448659	0.196586669526833	0.04076002790953847	0.04809132024925093	0.1393619584836394	0.2707324192668475	-1.2917154008837	0.1083138376444271	-0.5659622902540874	0.8538336296407104	-1.70786284711173	-1.707862847111735	-0.1066081846685151	0.0001387570364623425	-0.56915513186469	-0.08575241631585152	-0.1183884375009571	0.03510653186432991	-0.004563749649169225	-0.2206477874418078	0.01134115430623385	0.03014784947070783	0.2292885365918927	-39.05831695096668	-9.284205707146086	4.486635497711896	0.1968311517752213	-675.8135577437807	-72.37621157210782	-19.10832352219231	-0.2764876928340296	0.305007806845804	-0.4722175560917025	-0.1653088691281264	0.3554804645114362	-0.2838412867996482	1.38581162286297	-0.7338476926674935	-0.7338476926674927	-0.2328934399579701	0.02575478236615813	-0.2683997514989135	0.3479546172574043	4.747887310176356e-08	1.108950880318177e-06	-2.036744824291925e-07	1.450520886094287e-07	7.722668527824936e-08	5.803614317171377e-07	1.079986370872129e-07
1.51	0.111189144288591	0.04321900359605677	0.8910654954060018	0.3967742167615995	-0.3219364657417749	-0.1735385331081991	-0.7563884245141902	0.6487407674857252	0.6487407674857569	-0.123474277225505	-0.1745174709821355	0.1908823831881941	0.03991961721673402	0.04533206508220992	0.1423490036929323	0.2658497793607587	-1.292877592978144	0.1117878275931683	-0.5688188390703006	0.8672804762803449	-1.714489953880899	-1.714489953880911	-0.1089521819185887	0.0001320734421917762	-0.5716164195324897	-0.08231430068836987	-0.1133277483839692	0.03365587252547277	-0.004602885258440504	-0.2175601849710206	0.01391014736591535	0.02954209155184109	0.2238498567737889	-38.10787588004781	-9.219354412247238	4.512635402744414	0.02272747399355463	-672.9369200241243	-72.42604760116855	-19.63882433847856	-0.2749303797635367	0.2922029754399322	-0.5040439422752044	-0.06579241684044414	0.3423816647618225	-0.2759128788377406	1.302757010352192	-0.5904948157750703	-0.5904948157761425	-0.2347454556708894	-0.01372893719557386	-0.2221058083450335	0.343896483795298	3.58000072207312e-08	1.102567736088597e-06	-1.620233249295051e-07	1.486657195172938e-07	6.681336573552007e-08	5.502466594515723e-07	1.023767110114402e-07
1.52	0.1116287874711744	0.04465687154545499	0.8936982876206694	0.3838439432464651	-0.3208013836798777	-0.1792392263314958	-0.7476519462138821	0.6315688396420713	0.6315688396421527	-0.1245754456758306	-0.1745161590567302	0.185156061466092	0.03911401896986384	0.04260137187020002	0.1452020528009765	0.2606568700782759	-1.293004506562106	0.1152227537301811	-0.5712494358787406	0.8798727559535205	-1.719651166519408	-1.719651166519428	-0.1112798826942203	0.0001314295730581472	-0.5735622085572689	-0.078789927128813	-0.108267059266984	0.03220521318660869	-0.004642020867349775	-0.2144725825002583	0.01647914042559515	0.02893633363296907	0.2184111769556857	-37.16211474195621	-9.153462107066195	4.53821681995375	-0.1596148073346947	-670.1452701953026	-72.49951750980095	-20.14785146459793	-0.2707753018278115	0.2782085865960178	-0.5342714313705245	0.04174683296827249	0.3476677021657376	-0.1986508852449979	1.21489822957117	-0.4406688665355745	-0.4406688665355742	-0.2296341450695772	0.02696272739353622	-0.1653000228948682	0.3652062036724201	3.11604562170978e-08	1.117585463599035e-06	-1.532934929653406e-07	1.519387362377678e-07	6.468495672023897e-08	5.463936597283056e-07	1.025217561819332e-07
1.53	0.1120412407051238	0.04612258018772317	0.8962776538711829	0.3709176194416634	-0.3196321757063227	-0.1849622309223755	-0.7387939490040882	0.6143526952102776	0.6143526952103414	-0.1256997365749659	-0.1745149478988794	0.1794128940761857	0.0383440811490213	0.03989206904465391	0.1479147863152685	0.2551700751536765	-1.292080150250184	0.1186130616315647	-0.5732906365422344	0.8915696524542068	-1.723323346760022	-1.723323346760033	-0.1135606055019751	0.0001048391917537963	-0.5749798464252306	-0.07517982176830738	-0.1029470905161804	0.03049958061544893	-0.004744005964909721	-0.2117975716683187	0.01953968848915622	0.02830281429447019	0.2128080189713474	-36.06759926371293	-9.095575030894501	4.558238975403143	-0.4291092292369756	-667.4728521208463	-72.63784034939516	-20.63224636091832	-0.2705951386092566	0.2641036147593585	-0.5628142671492508	0.1447866731785943	0.333739577195155	-0.1976245529636017	1.123530327653749	-0.2923590713097833	-0.2923590713085036	-0.2244645021584174	-0.01839296324627663	-0.1162510491260999	0.3614224744190465	3.400017727070071e-08	1.155341617333244e-06	-1.795425693826689e-07	1.548498503841389e-07	7.135926514037146e-08	5.704437933312308e-07	1.087942083015835e-07
1.54	0.1124266834376805	0.04761467574131695	0.8988007660236208	0.3580059405285541	-0.3184292592051463	-0.190703801499101	-0.7298236938358198	0.5971074556823818	0.5971074556824176	-0.1268462693328747	-0.1745141872532706	0.1736582992315232	0.03761074633621887	0.03719927159146238	0.1504794350660978	0.2494060504631725	-1.290075528223291	0.1219644592557807	-0.5749626330482056	0.9023243476483496	-1.725470185740058	-1.72547018574006	-0.1157282544509276	4.132711630638615e-05	-0.575847699508361	-0.07146932552061995	-0.0976271217654007	0.028793948044279	-0.00484599106237046	-0.2091225608364053	0.02260023655270433	0.02766929495594453	0.2072048609870017	-34.97796009666396	-9.036271666319958	4.577393427589929	-0.7064094417965802	-664.8888322709174	-72.8014181281553	-21.0888865880693	-0.2674742273569199	0.2485916339034246	-0.5897173845514597	0.2577999759622982	0.3398856467322643	-0.1248100537403165	1.026457968262404	-0.1356006144198248	-0.1356006144198268	-0.2070193733091175	0.01957838856505235	-0.05534306592862628	0.3852843811088071	4.914666622850638e-08	1.16877035297845e-06	-2.682777808514075e-07	1.502542349673608e-07	8.7444090301577e-08	6.202843147176817e-07	1.21292090958955e-07
1.55	0.1127853046125375	0.04913166857692267	0.9012649251785252	0.3451195632156307	-0.3171932069840394	-0.1964597806073361	-0.7207505509874039	0.5798482641085092	0.5798482641085737	-0.1280144824282597	-0.1745139862389835	0.167897717288816	0.03691477468679105	0.03452971537277177	0.1528929946430132	0.2433870158190397	-1.287026446177991	0.1252358311130808	-0.576167263037593	0.9121515290811059	-1.726116889842437	-1.726116889842441	-0.1178990101427443	-3.004651299208982e-06	-0.5761766743939346	-0.06771194765869691	-0.09244488345459692	0.02712264041590181	-0.004970005589600323	-0.2063950965979329	0.02553043082823958	0.02697482731773111	0.2017829815048259	-33.94989074841412	-8.937327601667061	4.58749689546881	-0.9372483121363545	-662.5756716054192	-72.91390168354756	-21.51467444437026	-0.2659825579060706	0.233843437912539	-0.613785342911456	0.3544853542074986	0.3191856016148698	-0.1082595355902126	0.9379442877181475	0.008450192104153912	0.008450192103830245	-0.2196529570880039	-0.01681083170677219	-0.007841174341968465	0.3728029601215181	7.847269211941447e-08	1.154169672129808e-06	-4.290078870532888e-07	1.370095615756505e-07	1.143714673601052e-07	6.998398481155844e-07	1.409627522793528e-07
